<svg width="17" height="17" viewBox="0 0 17 17" fill="none" xmlns="http://www.w3.org/2000/svg">
<g clip-path="url(#clip0_212_1407)">
<path d="M11.3469 2.95178H11.3479C12.1358 2.94949 12.9057 3.18955 13.552 3.64026C14.1983 4.09097 14.6901 4.7302 14.9602 5.47034C15.2303 6.21059 15.2659 7.01685 15.0618 7.77795C14.8576 8.53892 14.4237 9.21854 13.8196 9.72424L13.6155 9.89514L13.8577 10.0045C14.8502 10.4537 15.7044 11.1604 16.3313 12.0514L16.3323 12.0524C16.3768 12.1147 16.409 12.1857 16.426 12.2604C16.443 12.335 16.445 12.4125 16.4319 12.4879C16.4188 12.5632 16.391 12.6354 16.3499 12.6998C16.3086 12.7644 16.2546 12.8202 16.1917 12.8639L16.1897 12.8649C16.0923 12.9345 15.9754 12.9716 15.8557 12.9713L15.7854 12.9674C15.7161 12.9587 15.6485 12.9373 15.5862 12.9049C15.5034 12.8618 15.4323 12.7994 15.3782 12.7233C14.9229 12.0774 14.3187 11.5503 13.6174 11.1862C13.004 10.8676 12.3316 10.6814 11.6438 10.6393L11.3479 10.6305L11.2327 10.6188C11.1207 10.5963 11.0168 10.5415 10.9348 10.4596C10.8253 10.3501 10.763 10.2014 10.7629 10.0465C10.7629 9.89155 10.8252 9.74299 10.9348 9.63342C11.0444 9.52387 11.193 9.46155 11.3479 9.46155C12.0562 9.46146 12.7358 9.18014 13.2366 8.67932C13.7372 8.17846 14.0188 7.49886 14.0188 6.79065C14.0187 6.0824 13.7374 5.40279 13.2366 4.90198C12.7358 4.40117 12.0561 4.11984 11.3479 4.11975C11.1037 4.11929 10.8601 4.15334 10.6252 4.22034L10.6233 4.22131C10.5493 4.24332 10.4716 4.25002 10.3948 4.24182C10.3177 4.23357 10.2429 4.20986 10.175 4.17249C10.1072 4.13511 10.0474 4.08472 9.99927 4.02405C9.95112 3.96337 9.91576 3.89354 9.89478 3.81897C9.87383 3.74443 9.86775 3.66632 9.8772 3.58948C9.88667 3.51279 9.91118 3.43883 9.94946 3.3717C9.98789 3.30441 10.0394 3.2451 10.1008 3.19788C10.1622 3.15075 10.2321 3.11615 10.3069 3.09631L10.3098 3.09534C10.647 2.99935 10.9964 2.95123 11.3469 2.95178ZM6.24536 2.9469C7.03274 2.9469 7.80136 3.18892 8.44653 3.64026C9.09177 4.09176 9.58297 4.73145 9.85278 5.47131C10.1225 6.21106 10.1584 7.01624 9.95532 7.77698C9.75217 8.5377 9.31958 9.21736 8.71704 9.72424L8.51489 9.89514L8.7561 10.0045C9.62469 10.3976 10.3876 10.9877 10.9846 11.7262L11.2297 12.0514L11.2346 12.0582C11.2833 12.1206 11.3189 12.1926 11.3391 12.2692C11.3592 12.3456 11.3634 12.4254 11.3518 12.5035C11.3402 12.5818 11.3132 12.6569 11.2717 12.7242C11.2302 12.7916 11.1752 12.8496 11.1106 12.8951C11.0459 12.9407 10.9722 12.9725 10.8948 12.9889C10.8175 13.0052 10.7379 13.0062 10.6604 12.9908C10.5828 12.9754 10.5089 12.9438 10.4436 12.899C10.4111 12.8767 10.381 12.8512 10.3538 12.8229L10.2805 12.7301L10.2756 12.7233C9.82136 12.0764 9.21825 11.5478 8.51685 11.1832C7.81536 10.8186 7.03593 10.6285 6.24536 10.6285C5.45501 10.6286 4.67617 10.8188 3.97485 11.1832C3.27335 11.5478 2.66939 12.0762 2.21509 12.7233V12.7242C2.16169 12.8009 2.08995 12.8637 2.00708 12.9069C1.92429 12.9499 1.83182 12.9716 1.73853 12.9713H1.73755C1.61782 12.9716 1.50098 12.9345 1.40356 12.8649H1.40259C1.27619 12.7756 1.19078 12.6394 1.16431 12.4869C1.1379 12.3346 1.17309 12.1779 1.26196 12.0514C1.88889 11.1604 2.74303 10.4537 3.7356 10.0045L3.97681 9.89514L3.77368 9.72424C3.17131 9.21741 2.73951 8.53755 2.53638 7.77698C2.33329 7.01619 2.3692 6.21109 2.63892 5.47131C2.90872 4.73147 3.39896 4.09176 4.04419 3.64026C4.68935 3.18881 5.45794 2.94696 6.24536 2.9469ZM6.76685 4.17151C6.24878 4.06846 5.71189 4.12174 5.22388 4.32385C4.73583 4.52601 4.31814 4.86802 4.02466 5.30725C3.73132 5.74634 3.57453 6.26259 3.57446 6.79065C3.57446 7.49887 3.856 8.17846 4.35669 8.67932C4.85752 9.18015 5.53709 9.46147 6.24536 9.46155C6.77362 9.46155 7.2905 9.30484 7.72974 9.01135C8.16879 8.71789 8.51103 8.30102 8.71313 7.81311C8.91526 7.32514 8.96847 6.78818 8.86548 6.27014C8.76242 5.75203 8.50757 5.27551 8.13403 4.90198C7.76058 4.52865 7.28475 4.27455 6.76685 4.17151Z" fill="#4CAF4F" stroke="#4CAF4F" stroke-width="0.333867"/>
</g>
<defs>
<clipPath id="clip0_212_1407">
<rect width="16.0256" height="16.0256" fill="white" transform="translate(0.736816 0.0301514)"/>
</clipPath>
</defs>
</svg>
