<svg width="17" height="17" viewBox="0 0 17 17" fill="none" xmlns="http://www.w3.org/2000/svg">
<mask id="path-1-inside-1_212_1413" fill="white">
<path d="M10.3409 7.92429C10.2605 7.92429 10.1858 7.90219 10.1195 7.86663V7.86758C10.1195 7.99406 10.0704 8.11284 9.98116 8.2018C9.89196 8.291 9.77327 8.34016 9.64694 8.34016C9.56537 8.34016 9.48978 8.31751 9.42276 8.28101C9.41599 8.39672 9.36974 8.50487 9.28723 8.58747C9.19803 8.67667 9.07934 8.72583 8.95292 8.72583C8.70176 8.72583 8.4978 8.5284 8.4831 8.28093C8.40538 8.32294 8.31752 8.34496 8.2269 8.33914C7.97982 8.32294 7.78633 8.10946 7.78633 7.85302V5.72741L7.54429 6.14674C7.4521 6.30712 7.27954 6.4067 7.09374 6.4067C7.0032 6.4067 6.91377 6.38295 6.83456 6.33756C6.73592 6.28038 6.66537 6.18858 6.63603 6.07877C6.60653 5.96888 6.62179 5.85396 6.67882 5.75547C6.67889 5.75547 7.47074 4.38422 7.51905 4.29999C7.52479 4.28732 7.54116 4.25059 7.55508 4.21928C7.56837 4.18939 7.57978 4.15872 7.59071 4.12788C7.82951 3.45371 8.4208 3.03493 9.13391 3.03493C10.06 3.03493 10.8133 3.85187 10.8133 4.85604L10.8134 7.45163C10.8134 7.57796 10.7643 7.69666 10.6752 7.78594C10.586 7.87514 10.4673 7.9243 10.3408 7.9243L10.3409 7.92429ZM9.13392 3.28605C8.52117 3.28605 8.03278 3.63215 7.8274 4.21186C7.81427 4.24867 7.80058 4.28549 7.78461 4.32136C7.73828 4.42526 7.73828 4.42526 7.72523 4.44021L7.7235 4.43871C7.65884 4.56071 7.46676 4.89335 6.89625 5.88115C6.87281 5.92166 6.86659 5.9687 6.87855 6.01369C6.89066 6.05868 6.91969 6.0966 6.95988 6.1198C7.08463 6.19146 7.25549 6.14521 7.32659 6.02132L7.80318 5.19619C7.83166 5.14702 7.88923 5.12288 7.94445 5.13782C7.99935 5.15253 8.0375 5.20232 8.0375 5.25911V7.8531C8.0375 7.97549 8.12985 8.08112 8.24336 8.08859C8.3088 8.09206 8.36984 8.07011 8.4157 8.02433C8.45739 7.98264 8.48035 7.92711 8.48035 7.86772V6.17122C8.48035 6.10185 8.5366 6.0456 8.60597 6.0456C8.67535 6.0456 8.73159 6.10177 8.73159 6.17122L8.73151 8.25334C8.73151 8.37541 8.83086 8.47476 8.95293 8.47476C9.01224 8.47476 9.06793 8.45179 9.1097 8.4101C9.15139 8.36833 9.17436 8.31265 9.17436 8.25334V6.17122C9.17436 6.10184 9.23052 6.0456 9.29997 6.0456C9.36935 6.0456 9.42559 6.10176 9.42559 6.17122L9.42551 7.84821V7.86772C9.42551 7.98972 9.52486 8.08906 9.64701 8.08906C9.70624 8.08906 9.76178 8.06601 9.80378 8.02416C9.84547 7.98255 9.86844 7.92702 9.86844 7.86763V6.17113C9.86844 6.10176 9.9246 6.04551 9.99405 6.04551C10.0634 6.04551 10.1197 6.10168 10.1197 6.17113L10.1195 7.45169C10.1195 7.57385 10.2189 7.67319 10.3409 7.67319C10.4002 7.67319 10.4558 7.65015 10.4975 7.60854C10.5393 7.56669 10.5622 7.511 10.5622 7.45169L10.5623 4.8561C10.5623 3.99047 9.92153 3.28607 9.13391 3.28607L9.13392 3.28605Z"/>
</mask>
<path d="M10.3409 7.92429C10.2605 7.92429 10.1858 7.90219 10.1195 7.86663V7.86758C10.1195 7.99406 10.0704 8.11284 9.98116 8.2018C9.89196 8.291 9.77327 8.34016 9.64694 8.34016C9.56537 8.34016 9.48978 8.31751 9.42276 8.28101C9.41599 8.39672 9.36974 8.50487 9.28723 8.58747C9.19803 8.67667 9.07934 8.72583 8.95292 8.72583C8.70176 8.72583 8.4978 8.5284 8.4831 8.28093C8.40538 8.32294 8.31752 8.34496 8.2269 8.33914C7.97982 8.32294 7.78633 8.10946 7.78633 7.85302V5.72741L7.54429 6.14674C7.4521 6.30712 7.27954 6.4067 7.09374 6.4067C7.0032 6.4067 6.91377 6.38295 6.83456 6.33756C6.73592 6.28038 6.66537 6.18858 6.63603 6.07877C6.60653 5.96888 6.62179 5.85396 6.67882 5.75547C6.67889 5.75547 7.47074 4.38422 7.51905 4.29999C7.52479 4.28732 7.54116 4.25059 7.55508 4.21928C7.56837 4.18939 7.57978 4.15872 7.59071 4.12788C7.82951 3.45371 8.4208 3.03493 9.13391 3.03493C10.06 3.03493 10.8133 3.85187 10.8133 4.85604L10.8134 7.45163C10.8134 7.57796 10.7643 7.69666 10.6752 7.78594C10.586 7.87514 10.4673 7.9243 10.3408 7.9243L10.3409 7.92429ZM9.13392 3.28605C8.52117 3.28605 8.03278 3.63215 7.8274 4.21186C7.81427 4.24867 7.80058 4.28549 7.78461 4.32136C7.73828 4.42526 7.73828 4.42526 7.72523 4.44021L7.7235 4.43871C7.65884 4.56071 7.46676 4.89335 6.89625 5.88115C6.87281 5.92166 6.86659 5.9687 6.87855 6.01369C6.89066 6.05868 6.91969 6.0966 6.95988 6.1198C7.08463 6.19146 7.25549 6.14521 7.32659 6.02132L7.80318 5.19619C7.83166 5.14702 7.88923 5.12288 7.94445 5.13782C7.99935 5.15253 8.0375 5.20232 8.0375 5.25911V7.8531C8.0375 7.97549 8.12985 8.08112 8.24336 8.08859C8.3088 8.09206 8.36984 8.07011 8.4157 8.02433C8.45739 7.98264 8.48035 7.92711 8.48035 7.86772V6.17122C8.48035 6.10185 8.5366 6.0456 8.60597 6.0456C8.67535 6.0456 8.73159 6.10177 8.73159 6.17122L8.73151 8.25334C8.73151 8.37541 8.83086 8.47476 8.95293 8.47476C9.01224 8.47476 9.06793 8.45179 9.1097 8.4101C9.15139 8.36833 9.17436 8.31265 9.17436 8.25334V6.17122C9.17436 6.10184 9.23052 6.0456 9.29997 6.0456C9.36935 6.0456 9.42559 6.10176 9.42559 6.17122L9.42551 7.84821V7.86772C9.42551 7.98972 9.52486 8.08906 9.64701 8.08906C9.70624 8.08906 9.76178 8.06601 9.80378 8.02416C9.84547 7.98255 9.86844 7.92702 9.86844 7.86763V6.17113C9.86844 6.10176 9.9246 6.04551 9.99405 6.04551C10.0634 6.04551 10.1197 6.10168 10.1197 6.17113L10.1195 7.45169C10.1195 7.57385 10.2189 7.67319 10.3409 7.67319C10.4002 7.67319 10.4558 7.65015 10.4975 7.60854C10.5393 7.56669 10.5622 7.511 10.5622 7.45169L10.5623 4.8561C10.5623 3.99047 9.92153 3.28607 9.13391 3.28607L9.13392 3.28605Z" fill="#4CAF4F"/>
<path d="M10.3409 7.92429V7.47914H11.9136L10.5742 8.30341L10.3409 7.92429ZM10.1195 7.86663H9.67437V7.12283L10.3299 7.47432L10.1195 7.86663ZM9.98116 8.2018L9.66639 7.88703L9.66681 7.88662L9.98116 8.2018ZM9.42276 8.28101L8.97836 8.25503L9.01932 7.55443L9.63565 7.89007L9.42276 8.28101ZM9.28723 8.58747L9.60217 8.90208L9.602 8.90224L9.28723 8.58747ZM8.4831 8.28093L8.27144 7.88932L8.88604 7.55714L8.92747 8.25454L8.4831 8.28093ZM8.2269 8.33914L8.19836 8.78338L8.19777 8.78334L8.2269 8.33914ZM7.78633 5.72741L7.40079 5.50488L8.23149 4.06574V5.72741H7.78633ZM7.54429 6.14674L7.15835 5.9249L7.15875 5.9242L7.54429 6.14674ZM6.83456 6.33756L6.61324 6.72381L6.61129 6.72268L6.83456 6.33756ZM6.63603 6.07877L7.06596 5.96336L7.0661 5.96386L6.63603 6.07877ZM6.67882 5.75547L6.29358 5.53241L6.42218 5.31032H6.67882V5.75547ZM7.51905 4.29999L7.92448 4.48381L7.91574 4.50309L7.90521 4.52145L7.51905 4.29999ZM7.55508 4.21928L7.14833 4.0384L7.14833 4.03839L7.55508 4.21928ZM7.59071 4.12788L8.01032 4.27651L8.01028 4.27663L7.59071 4.12788ZM10.8133 4.85604L10.3682 4.85605V4.85604H10.8133ZM10.8134 7.45163L11.2586 7.45162V7.45163H10.8134ZM10.6752 7.78594L10.9903 8.10042L10.99 8.10071L10.6752 7.78594ZM10.3408 7.9243V8.36946H8.76809L10.1075 7.54518L10.3408 7.9243ZM9.13392 3.28605V2.84089H9.72408L9.56195 3.40834L9.13392 3.28605ZM7.8274 4.21186L8.24701 4.36051L8.24666 4.36147L7.8274 4.21186ZM7.78461 4.32136L8.19129 4.5024L8.19119 4.50264L7.78461 4.32136ZM7.72523 4.44021L8.06045 4.7331L7.76923 5.0664L7.43426 4.77711L7.72523 4.44021ZM7.7235 4.43871L7.33016 4.23026L7.59173 3.73672L8.01446 4.10181L7.7235 4.43871ZM6.89625 5.88115L7.28173 6.10379L7.28154 6.10411L6.89625 5.88115ZM6.87855 6.01369L6.4487 6.12942L6.44833 6.12803L6.87855 6.01369ZM6.95988 6.1198L6.73816 6.50581L6.73733 6.50533L6.95988 6.1198ZM7.32659 6.02132L6.9405 5.79973L6.94111 5.79867L7.32659 6.02132ZM7.80318 5.19619L7.4177 4.97354L7.41798 4.97307L7.80318 5.19619ZM7.94445 5.13782L7.82925 5.56782L7.82815 5.56752L7.94445 5.13782ZM8.24336 8.08859L8.21985 8.53317L8.21412 8.53279L8.24336 8.08859ZM8.4157 8.02433L8.73047 8.3391L8.7302 8.33938L8.4157 8.02433ZM8.73159 6.17122H9.17675V6.17124L8.73159 6.17122ZM8.73151 8.25334H8.28636V8.25332L8.73151 8.25334ZM9.1097 8.4101L9.42477 8.72458L9.42417 8.72518L9.1097 8.4101ZM9.42559 6.17122H9.87075V6.17124L9.42559 6.17122ZM9.42551 7.84821H8.98036V7.84819L9.42551 7.84821ZM9.80378 8.02416L10.1183 8.33923L10.118 8.33952L9.80378 8.02416ZM10.1197 6.17113H10.5648V6.17119L10.1197 6.17113ZM10.1195 7.45169H9.67436L9.67436 7.45164L10.1195 7.45169ZM10.4975 7.60854L10.8122 7.92331L10.8119 7.92361L10.4975 7.60854ZM10.5622 7.45169H10.117V7.45168L10.5622 7.45169ZM10.5623 4.8561H11.0074V4.85611L10.5623 4.8561ZM9.13391 3.28607V3.73123H8.54376L8.70589 3.16378L9.13391 3.28607ZM10.3409 8.36945C10.1769 8.36945 10.0306 8.32407 9.90916 8.25895L10.3299 7.47432C10.3356 7.4774 10.3393 7.47858 10.3407 7.47897C10.342 7.47931 10.3418 7.47914 10.3409 7.47914V8.36945ZM10.5647 7.86663V7.86758H9.67437V7.86663H10.5647ZM10.5647 7.86758C10.5647 8.11175 10.4689 8.34411 10.2955 8.51699L9.66681 7.88662C9.66999 7.88344 9.67156 7.88072 9.67248 7.8785C9.67341 7.87627 9.67437 7.87284 9.67437 7.86758H10.5647ZM10.2959 8.51658C10.1232 8.68933 9.89123 8.78532 9.64694 8.78532V7.89501C9.65204 7.89501 9.65541 7.89408 9.65769 7.89314C9.65997 7.89219 9.66291 7.89051 9.66639 7.88703L10.2959 8.51658ZM9.64694 8.78532C9.48088 8.78532 9.33271 8.73886 9.20986 8.67196L9.63565 7.89007C9.64145 7.89322 9.64512 7.89442 9.64658 7.89482C9.64783 7.89516 9.64773 7.89501 9.64694 7.89501V8.78532ZM9.86715 8.30699C9.85434 8.5261 9.76546 8.73861 9.60217 8.90208L8.97229 8.27286C8.97394 8.27121 8.9749 8.26975 8.97571 8.26791C8.97658 8.26591 8.97796 8.26183 8.97836 8.25503L9.86715 8.30699ZM9.602 8.90224C9.42922 9.07502 9.19726 9.17099 8.95292 9.17099V8.28067C8.9581 8.28067 8.96149 8.27973 8.96377 8.27879C8.96604 8.27785 8.96898 8.27617 8.97246 8.2727L9.602 8.90224ZM8.95292 9.17099C8.46147 9.17099 8.06711 8.78527 8.03872 8.30733L8.92747 8.25454C8.92792 8.26211 8.93102 8.26875 8.9365 8.27398C8.93917 8.27653 8.94188 8.27817 8.94424 8.27913C8.94631 8.27998 8.94894 8.28067 8.95292 8.28067V9.17099ZM8.69475 8.67255C8.55097 8.75027 8.38048 8.79508 8.19836 8.78338L8.25544 7.8949C8.25545 7.8949 8.2564 7.89499 8.25874 7.89445C8.26125 7.89386 8.26561 7.89247 8.27144 7.88932L8.69475 8.67255ZM8.19777 8.78334C7.7035 8.75093 7.34118 8.33059 7.34118 7.85302H8.23149C8.23149 7.86808 8.23695 7.87967 8.2438 7.88723C8.25048 7.89459 8.25501 7.89487 8.25603 7.89494L8.19777 8.78334ZM7.34118 7.85302V5.72741H8.23149V7.85302H7.34118ZM8.17187 5.94995L7.92983 6.36928L7.15875 5.9242L7.40079 5.50488L8.17187 5.94995ZM7.93023 6.36857C7.75822 6.66783 7.43804 6.85186 7.09374 6.85186V5.96154C7.12103 5.96154 7.14599 5.94641 7.15835 5.9249L7.93023 6.36857ZM7.09374 6.85186C6.9254 6.85186 6.75969 6.80771 6.61324 6.7238L7.05588 5.95132C7.06785 5.95818 7.08101 5.96154 7.09374 5.96154V6.85186ZM6.61129 6.72268C6.41143 6.60681 6.26596 6.41825 6.20596 6.19367L7.0661 5.96386C7.06569 5.96234 7.06458 5.95965 7.06244 5.95686C7.06031 5.95409 7.05834 5.95274 7.05783 5.95244L6.61129 6.72268ZM6.20609 6.19417C6.14585 5.96976 6.17739 5.73308 6.29358 5.53241L7.06405 5.97854C7.06469 5.97744 7.0658 5.9749 7.06628 5.9713C7.06675 5.9677 7.06635 5.96482 7.06596 5.96336L6.20609 6.19417ZM6.67882 5.31032C6.46045 5.36756 6.297 5.5266 6.29578 5.52865C6.29538 5.52934 6.29477 5.53037 6.29458 5.5307C6.29447 5.53089 6.29428 5.53121 6.29421 5.53132C6.29417 5.53139 6.29409 5.53153 6.29407 5.53156C6.29401 5.53167 6.29403 5.53164 6.2942 5.53135C6.2945 5.53083 6.29501 5.52995 6.29575 5.52867C6.29721 5.52614 6.29941 5.52234 6.30231 5.51732C6.3081 5.50729 6.31662 5.49255 6.32749 5.47372C6.34924 5.43608 6.38036 5.38221 6.41785 5.31727C6.49285 5.18742 6.59334 5.01339 6.69534 4.83673C6.89968 4.48282 7.10917 4.11989 7.1329 4.07852L7.90521 4.52145C7.88063 4.56431 7.67004 4.92913 7.46636 5.2819C7.36435 5.45858 7.26384 5.63264 7.18883 5.76252C7.15133 5.82746 7.12019 5.88137 7.09843 5.91905C7.08755 5.93789 7.079 5.95269 7.07316 5.96278C7.07025 5.96783 7.06799 5.97174 7.06645 5.9744C7.06568 5.97572 7.06505 5.97681 7.06459 5.97761C7.06438 5.97798 7.06411 5.97844 7.06385 5.97888C7.06376 5.97905 7.06347 5.97954 7.06313 5.98012C7.06291 5.98049 7.06229 5.98156 7.06187 5.98226C7.06063 5.98434 6.89718 6.14339 6.67882 6.20063V5.31032ZM7.11363 4.11616C7.11853 4.10535 7.13405 4.07051 7.14833 4.0384L7.96183 4.40017C7.94826 4.43067 7.93106 4.46929 7.92448 4.48381L7.11363 4.11616ZM7.14833 4.03839C7.15452 4.02448 7.16137 4.0067 7.17114 3.97913L8.01028 4.27663C7.99819 4.31073 7.98222 4.35431 7.96182 4.40018L7.14833 4.03839ZM7.1711 3.97925C7.4726 3.12806 8.23148 2.58978 9.13391 2.58978V3.48009C8.61011 3.48009 8.18642 3.77936 8.01032 4.27651L7.1711 3.97925ZM9.13391 2.58978C10.3391 2.58978 11.2585 3.64065 11.2585 4.85604H10.3682C10.3682 4.06309 9.78084 3.48009 9.13391 3.48009V2.58978ZM11.2585 4.85602L11.2586 7.45162L10.3683 7.45165L10.3682 4.85605L11.2585 4.85602ZM11.2586 7.45163C11.2586 7.69575 11.1628 7.92758 10.9903 8.10042L10.3601 7.47146C10.3637 7.46793 10.3654 7.46494 10.3664 7.4626C10.3673 7.46026 10.3683 7.45682 10.3683 7.45163H11.2586ZM10.99 8.10071C10.8172 8.27352 10.5852 8.36946 10.3408 8.36946V7.47914C10.3461 7.47914 10.3495 7.47819 10.3518 7.47725C10.354 7.47631 10.357 7.47464 10.3604 7.47117L10.99 8.10071ZM10.1075 7.54518L10.1076 7.54517L10.5742 8.30341L10.5742 8.30342L10.1075 7.54518ZM9.13392 3.7312C8.71068 3.7312 8.38974 3.95761 8.24701 4.36051L7.4078 4.06321C7.67581 3.30669 8.33165 2.84089 9.13392 2.84089V3.7312ZM8.24666 4.36147C8.23261 4.40085 8.21436 4.45058 8.19129 4.5024L7.37794 4.14031C7.3868 4.12039 7.39592 4.0965 7.40814 4.06225L8.24666 4.36147ZM8.19119 4.50264C8.1708 4.54836 8.15372 4.58697 8.14065 4.61312C8.13254 4.62935 8.11941 4.65437 8.10037 4.68208C8.08107 4.71015 8.062 4.73133 8.06045 4.7331L7.39 4.14731C7.39105 4.14611 7.39071 4.1465 7.39018 4.14711C7.3895 4.1479 7.38777 4.14992 7.3855 4.15269C7.38043 4.15887 7.37379 4.16739 7.36663 4.17781C7.35271 4.19807 7.34492 4.21379 7.34423 4.21517C7.34373 4.21618 7.34404 4.21558 7.34556 4.21234C7.34702 4.2092 7.3491 4.20469 7.35207 4.19811C7.35816 4.18467 7.36624 4.16654 7.37804 4.14008L8.19119 4.50264ZM7.43426 4.77711L7.43253 4.77562L8.01446 4.10181L8.01619 4.1033L7.43426 4.77711ZM8.11683 4.64717C8.04716 4.77863 7.84826 5.12288 7.28173 6.10379L6.51077 5.65851C7.08525 4.66383 7.27052 4.3428 7.33016 4.23026L8.11683 4.64717ZM7.28154 6.10411C7.31716 6.04255 7.32709 5.96829 7.30877 5.89935L6.44833 6.12803C6.40609 5.96911 6.42845 5.80077 6.51095 5.65819L7.28154 6.10411ZM7.3084 5.89796C7.29008 5.82992 7.24506 5.77042 7.18244 5.73427L6.73733 6.50533C6.59432 6.42277 6.49124 6.28744 6.4487 6.12942L7.3084 5.89796ZM7.18161 5.73379C7.13094 5.70469 7.08165 5.70488 7.04762 5.71404C7.01372 5.72317 6.97026 5.74789 6.9405 5.79973L7.71267 6.24291C7.51867 6.58094 7.07528 6.69945 6.73816 6.50581L7.18161 5.73379ZM6.94111 5.79867L7.4177 4.97354L8.18866 5.41883L7.71206 6.24397L6.94111 5.79867ZM7.41798 4.97307C7.54655 4.75108 7.809 4.63999 8.06075 4.70813L7.82815 5.56752C7.96946 5.60576 8.11676 5.54297 8.18838 5.4193L7.41798 4.97307ZM8.05965 4.70783C8.30938 4.77474 8.48266 5.00105 8.48266 5.25911H7.59235C7.59235 5.40359 7.68932 5.53033 7.82925 5.56781L8.05965 4.70783ZM8.48266 5.25911V7.8531H7.59235V5.25911H8.48266ZM8.48266 7.8531C8.48266 7.80237 8.46387 7.75626 8.43302 7.72097C8.40222 7.68573 8.34787 7.64935 8.27259 7.6444L8.21412 8.53279C7.83939 8.50813 7.59235 8.18169 7.59235 7.8531H8.48266ZM8.26687 7.64406C8.21428 7.64128 8.15003 7.66054 8.1012 7.70928L8.7302 8.33938C8.58965 8.47968 8.40333 8.54283 8.21985 8.53313L8.26687 7.64406ZM8.10093 7.70956C8.05868 7.7518 8.0352 7.80969 8.0352 7.86772H8.92551C8.92551 8.04453 8.85609 8.21348 8.73047 8.3391L8.10093 7.70956ZM8.0352 7.86772V6.17122H8.92551V7.86772H8.0352ZM8.0352 6.17122C8.0352 5.85599 8.29074 5.60045 8.60597 5.60045V6.49076C8.78245 6.49076 8.92551 6.3477 8.92551 6.17122H8.0352ZM8.60597 5.60045C8.92102 5.60045 9.17675 5.85574 9.17675 6.17122H8.28643C8.28643 6.3478 8.42967 6.49076 8.60597 6.49076V5.60045ZM9.17675 6.17124L9.17667 8.25335L8.28636 8.25332L8.28643 6.1712L9.17675 6.17124ZM9.17667 8.25334C9.17667 8.12956 9.07671 8.0296 8.95293 8.0296V8.91991C8.58501 8.91991 8.28636 8.62127 8.28636 8.25334H9.17667ZM8.95293 8.0296C8.89499 8.0296 8.83739 8.05295 8.79523 8.09503L9.42417 8.72518C9.29847 8.85063 9.12949 8.91991 8.95293 8.91991V8.0296ZM8.79463 8.09563C8.75254 8.13779 8.7292 8.1954 8.7292 8.25334H9.61951C9.61951 8.42989 9.55023 8.59888 9.42477 8.72458L8.79463 8.09563ZM8.7292 8.25334V6.17122H9.61951V8.25334H8.7292ZM8.7292 6.17122C8.7292 5.85618 8.98448 5.60045 9.29997 5.60045V6.49076C9.47656 6.49076 9.61951 6.34751 9.61951 6.17122H8.7292ZM9.29997 5.60045C9.61502 5.60045 9.87075 5.85573 9.87075 6.17122H8.98044C8.98044 6.3478 9.12368 6.49076 9.29997 6.49076V5.60045ZM9.87075 6.17124L9.87067 7.84823L8.98036 7.84819L8.98044 6.1712L9.87075 6.17124ZM9.87067 7.84821V7.86772H8.98036V7.84821H9.87067ZM9.87067 7.86772C9.87067 7.74365 9.77049 7.6439 9.64701 7.6439V8.53421C9.27922 8.53421 8.98036 8.23579 8.98036 7.86772H9.87067ZM9.64701 7.6439C9.58786 7.6439 9.5306 7.66796 9.4896 7.7088L10.118 8.33952C9.99295 8.46406 9.82462 8.53421 9.64701 8.53421V7.6439ZM9.4893 7.70909C9.44672 7.7516 9.42328 7.80967 9.42328 7.86763H10.3136C10.3136 8.04437 10.2442 8.21351 10.1183 8.33923L9.4893 7.70909ZM9.42328 7.86763V6.17113H10.3136V7.86763H9.42328ZM9.42328 6.17113C9.42328 5.85608 9.67857 5.60036 9.99405 5.60036V6.49067C10.1706 6.49067 10.3136 6.34743 10.3136 6.17113H9.42328ZM9.99405 5.60036C10.3091 5.60036 10.5648 5.85564 10.5648 6.17113H9.67452C9.67452 6.34771 9.81776 6.49067 9.99405 6.49067V5.60036ZM10.5648 6.17119L10.5647 7.45175L9.67436 7.45164L9.67452 6.17108L10.5648 6.17119ZM10.5647 7.45169C10.5647 7.32821 10.4649 7.22804 10.3409 7.22804V8.11835C9.9728 8.11835 9.67436 7.81949 9.67436 7.45169H10.5647ZM10.3409 7.22804C10.2825 7.22804 10.2249 7.25168 10.183 7.29347L10.8119 7.92361C10.6867 8.04862 10.518 8.11835 10.3409 8.11835V7.22804ZM10.1827 7.29377C10.1403 7.33616 10.117 7.39401 10.117 7.45169H11.0074C11.0074 7.628 10.9383 7.79723 10.8122 7.92331L10.1827 7.29377ZM10.117 7.45168L10.1171 4.85608L11.0074 4.85611L11.0074 7.45171L10.117 7.45168ZM10.1171 4.8561C10.1171 4.19575 9.63698 3.73123 9.13391 3.73123V2.84092C10.2061 2.84092 11.0074 3.78519 11.0074 4.8561H10.1171ZM8.70589 3.16378L8.70589 3.16375L9.56195 3.40834L9.56194 3.40837L8.70589 3.16378Z" fill="#4CAF4F" mask="url(#path-1-inside-1_212_1413)"/>
<path d="M4.88184 8.78235L4.85645 8.76868C4.85042 8.77954 4.83437 8.80876 4.81055 8.85168C4.81945 8.85615 4.82791 8.86099 4.83691 8.86438C4.85176 8.83763 4.86642 8.81012 4.88184 8.78235Z" fill="#4CAF4F" stroke="#4CAF4F" stroke-width="0.445155"/>
<mask id="path-4-inside-2_212_1413" fill="white">
<path d="M14.1156 12.2689C13.8838 12.6555 13.5025 12.9201 13.042 13.0142C12.5856 13.1072 12.1055 13.0214 11.69 12.7723L9.46413 11.437C9.35582 11.3721 9.2792 11.2689 9.24853 11.1463C9.21809 11.024 9.23712 10.8969 9.30202 10.7887C9.34252 10.7211 9.39931 10.6677 9.46515 10.6283L9.46452 10.6279C9.35621 10.563 9.2796 10.4598 9.24908 10.3374C9.21841 10.215 9.23744 10.0879 9.30241 9.97948C9.34426 9.90986 9.4016 9.85543 9.46705 9.81681C9.37203 9.75145 9.30359 9.65651 9.27543 9.54386C9.24476 9.42139 9.26379 9.29435 9.32876 9.18612C9.39366 9.0778 9.49694 9.00127 9.61933 8.97067C9.65756 8.96108 9.69634 8.95636 9.73473 8.95636C9.81008 8.95644 9.88402 8.97555 9.95198 9.01111C9.95615 8.92309 9.98234 8.83664 10.0338 8.76246C10.1748 8.55898 10.4574 8.50266 10.6774 8.63472L12.5002 9.72807L12.2653 9.30488C12.1751 9.14332 12.1784 8.94399 12.274 8.78463C12.3205 8.70708 12.3871 8.64266 12.4666 8.59806C12.532 8.56187 12.6028 8.54473 12.6726 8.54473C12.8226 8.54481 12.9683 8.62394 13.0458 8.76404C13.3161 9.25102 13.8261 10.1694 13.862 10.2335C13.8696 10.2446 13.8927 10.2777 13.9124 10.3057C13.9312 10.3324 13.9515 10.3579 13.9725 10.3832C14.4276 10.9349 14.4825 11.6574 14.1156 12.2689L14.1156 12.2689ZM13.7787 10.5433C13.7537 10.513 13.7292 10.4821 13.7068 10.4503C13.6389 10.3538 13.6371 10.3513 13.632 10.3261C13.5526 10.1946 13.3588 9.84569 12.826 8.88589C12.7793 8.80164 12.6731 8.77089 12.5885 8.81761C12.5469 8.84089 12.5135 8.87338 12.4891 8.91405C12.4397 8.9964 12.4378 9.09929 12.4845 9.18283L12.9468 10.0159C12.9744 10.0656 12.9652 10.1276 12.9244 10.1671C12.8837 10.2066 12.8214 10.2136 12.7725 10.1845L10.5482 8.8501C10.4433 8.78725 10.3051 8.81187 10.2403 8.90547C10.203 8.95927 10.1911 9.02346 10.2067 9.08615C10.221 9.14341 10.257 9.19171 10.3079 9.22223C10.308 9.22231 10.3081 9.22246 10.3083 9.22254L11.7626 10.095C11.8221 10.1307 11.8413 10.2078 11.8056 10.2674C11.7699 10.3267 11.6929 10.3462 11.6333 10.3104L9.84781 9.2393C9.79715 9.20894 9.73753 9.19997 9.68026 9.21437C9.62284 9.22868 9.57455 9.26455 9.54411 9.31544C9.51359 9.36618 9.50478 9.42572 9.51894 9.48298C9.53325 9.54025 9.5692 9.58862 9.62001 9.61914L9.96745 9.82751L11.4054 10.6902C11.4649 10.726 11.4841 10.803 11.4484 10.8626C11.4127 10.922 11.3357 10.9413 11.2761 10.9056L9.82146 10.0329C9.71685 9.96997 9.58061 10.0041 9.51768 10.1089C9.48716 10.1597 9.47835 10.2192 9.49251 10.2765C9.50683 10.3338 9.54277 10.3821 9.59366 10.4127L9.9503 10.6266L11.0483 11.2854C11.1078 11.3211 11.127 11.3982 11.0913 11.4577C11.0556 11.5171 10.9786 11.5366 10.919 11.5007L9.82099 10.842C9.77033 10.8116 9.71094 10.8026 9.65337 10.817C9.5961 10.8314 9.54765 10.8672 9.51721 10.918C9.48677 10.9688 9.47788 11.0284 9.49204 11.0856C9.50635 11.1428 9.5423 11.1911 9.59319 11.2217L11.8191 12.557C12.1803 12.7737 12.5969 12.8488 12.9916 12.7682C13.3822 12.6885 13.7048 12.4653 13.9001 12.1398C14.2156 11.6142 14.1702 11.0174 13.7789 10.5433L13.7787 10.5433Z"/>
</mask>
<path d="M14.1156 12.2689C13.8838 12.6555 13.5025 12.9201 13.042 13.0142C12.5856 13.1072 12.1055 13.0214 11.69 12.7723L9.46413 11.437C9.35582 11.3721 9.2792 11.2689 9.24853 11.1463C9.21809 11.024 9.23712 10.8969 9.30202 10.7887C9.34252 10.7211 9.39931 10.6677 9.46515 10.6283L9.46452 10.6279C9.35621 10.563 9.2796 10.4598 9.24908 10.3374C9.21841 10.215 9.23744 10.0879 9.30241 9.97948C9.34426 9.90986 9.4016 9.85543 9.46705 9.81681C9.37203 9.75145 9.30359 9.65651 9.27543 9.54386C9.24476 9.42139 9.26379 9.29435 9.32876 9.18612C9.39366 9.0778 9.49694 9.00127 9.61933 8.97067C9.65756 8.96108 9.69634 8.95636 9.73473 8.95636C9.81008 8.95644 9.88402 8.97555 9.95198 9.01111C9.95615 8.92309 9.98234 8.83664 10.0338 8.76246C10.1748 8.55898 10.4574 8.50266 10.6774 8.63472L12.5002 9.72807L12.2653 9.30488C12.1751 9.14332 12.1784 8.94399 12.274 8.78463C12.3205 8.70708 12.3871 8.64266 12.4666 8.59806C12.532 8.56187 12.6028 8.54473 12.6726 8.54473C12.8226 8.54481 12.9683 8.62394 13.0458 8.76404C13.3161 9.25102 13.8261 10.1694 13.862 10.2335C13.8696 10.2446 13.8927 10.2777 13.9124 10.3057C13.9312 10.3324 13.9515 10.3579 13.9725 10.3832C14.4276 10.9349 14.4825 11.6574 14.1156 12.2689L14.1156 12.2689ZM13.7787 10.5433C13.7537 10.513 13.7292 10.4821 13.7068 10.4503C13.6389 10.3538 13.6371 10.3513 13.632 10.3261C13.5526 10.1946 13.3588 9.84569 12.826 8.88589C12.7793 8.80164 12.6731 8.77089 12.5885 8.81761C12.5469 8.84089 12.5135 8.87338 12.4891 8.91405C12.4397 8.9964 12.4378 9.09929 12.4845 9.18283L12.9468 10.0159C12.9744 10.0656 12.9652 10.1276 12.9244 10.1671C12.8837 10.2066 12.8214 10.2136 12.7725 10.1845L10.5482 8.8501C10.4433 8.78725 10.3051 8.81187 10.2403 8.90547C10.203 8.95927 10.1911 9.02346 10.2067 9.08615C10.221 9.14341 10.257 9.19171 10.3079 9.22223C10.308 9.22231 10.3081 9.22246 10.3083 9.22254L11.7626 10.095C11.8221 10.1307 11.8413 10.2078 11.8056 10.2674C11.7699 10.3267 11.6929 10.3462 11.6333 10.3104L9.84781 9.2393C9.79715 9.20894 9.73753 9.19997 9.68026 9.21437C9.62284 9.22868 9.57455 9.26455 9.54411 9.31544C9.51359 9.36618 9.50478 9.42572 9.51894 9.48298C9.53325 9.54025 9.5692 9.58862 9.62001 9.61914L9.96745 9.82751L11.4054 10.6902C11.4649 10.726 11.4841 10.803 11.4484 10.8626C11.4127 10.922 11.3357 10.9413 11.2761 10.9056L9.82146 10.0329C9.71685 9.96997 9.58061 10.0041 9.51768 10.1089C9.48716 10.1597 9.47835 10.2192 9.49251 10.2765C9.50683 10.3338 9.54277 10.3821 9.59366 10.4127L9.9503 10.6266L11.0483 11.2854C11.1078 11.3211 11.127 11.3982 11.0913 11.4577C11.0556 11.5171 10.9786 11.5366 10.919 11.5007L9.82099 10.842C9.77033 10.8116 9.71094 10.8026 9.65337 10.817C9.5961 10.8314 9.54765 10.8672 9.51721 10.918C9.48677 10.9688 9.47788 11.0284 9.49204 11.0856C9.50635 11.1428 9.5423 11.1911 9.59319 11.2217L11.8191 12.557C12.1803 12.7737 12.5969 12.8488 12.9916 12.7682C13.3822 12.6885 13.7048 12.4653 13.9001 12.1398C14.2156 11.6142 14.1702 11.0174 13.7789 10.5433L13.7787 10.5433Z" fill="#4CAF4F"/>
<path d="M14.1156 12.2689L13.972 11.8476L15.1225 11.4553L14.4974 12.4978L14.1156 12.2689ZM13.042 13.0142L13.1311 13.4503L13.1309 13.4504L13.042 13.0142ZM11.69 12.7723L11.4611 13.1541L11.461 13.1541L11.69 12.7723ZM9.46413 11.437L9.69312 11.0553L9.69313 11.0553L9.46413 11.437ZM9.24853 11.1463L8.81669 11.2544L8.81655 11.2538L9.24853 11.1463ZM9.30202 10.7887L9.68393 11.0174L9.68381 11.0176L9.30202 10.7887ZM9.46515 10.6283L9.70109 10.2508L10.3182 10.6365L9.69377 11.0103L9.46515 10.6283ZM9.46452 10.6279L9.69355 10.2461L9.70046 10.2504L9.46452 10.6279ZM9.24908 10.3374L9.68088 10.2291L9.68102 10.2297L9.24908 10.3374ZM9.30241 9.97948L8.92061 9.75059L8.92089 9.75013L9.30241 9.97948ZM9.46705 9.81681L9.71934 9.45005L10.2943 9.84554L9.69329 10.2002L9.46705 9.81681ZM9.27543 9.54386L9.70725 9.4357L9.7073 9.4359L9.27543 9.54386ZM9.32876 9.18612L9.71063 9.4149L9.71043 9.41523L9.32876 9.18612ZM9.61933 8.97067L9.72772 9.40243L9.72728 9.40254L9.61933 8.97067ZM9.73473 8.95636V8.5112L9.73519 8.5112L9.73473 8.95636ZM9.95198 9.01111L10.3966 9.03217L10.3636 9.72888L9.74562 9.40554L9.95198 9.01111ZM10.0338 8.76246L10.3996 9.01605L10.3996 9.01614L10.0338 8.76246ZM10.6774 8.63472L10.4485 9.01646L10.4484 9.01643L10.6774 8.63472ZM12.5002 9.72807L12.8894 9.51199L13.6957 10.9643L12.2712 10.1098L12.5002 9.72807ZM12.2653 9.30488L12.654 9.08799L12.6544 9.0888L12.2653 9.30488ZM12.274 8.78463L11.8922 8.55569L11.8923 8.55549L12.274 8.78463ZM12.4666 8.59806L12.2489 8.20979L12.251 8.20859L12.4666 8.59806ZM12.6726 8.54473V8.09957L12.6728 8.09957L12.6726 8.54473ZM13.0458 8.76404L12.6566 8.98006L12.6564 8.97961L13.0458 8.76404ZM13.862 10.2335L13.4952 10.4858L13.4836 10.4689L13.4735 10.4509L13.862 10.2335ZM13.9124 10.3057L13.5486 10.5622L13.5483 10.5618L13.9124 10.3057ZM13.9725 10.3832L14.3152 10.0991L14.3159 10.0999L13.9725 10.3832ZM14.1156 12.2689L14.2592 12.6903L13.1081 13.0827L13.7339 12.0399L14.1156 12.2689ZM13.7787 10.5433L13.8228 10.9863L13.5867 11.0098L13.4355 10.8268L13.7787 10.5433ZM13.7068 10.4503L14.0707 10.1938L14.0713 10.1947L13.7068 10.4503ZM13.632 10.3261L14.013 10.0958L14.053 10.1619L14.0683 10.2377L13.632 10.3261ZM12.826 8.88589L12.4368 9.10193L12.4367 9.10179L12.826 8.88589ZM12.5885 8.81761L12.3712 8.42913L12.3733 8.42798L12.5885 8.81761ZM12.4891 8.91405L12.8709 9.14296L12.8709 9.14302L12.4891 8.91405ZM12.4845 9.18283L12.8732 8.96582L12.8737 8.96681L12.4845 9.18283ZM12.9468 10.0159L12.5577 10.232L12.5576 10.2319L12.9468 10.0159ZM12.9244 10.1671L12.6143 9.84771L12.6149 9.84711L12.9244 10.1671ZM12.7725 10.1845L12.5449 10.567L12.5434 10.5662L12.7725 10.1845ZM10.5482 8.8501L10.777 8.46828L10.7772 8.46836L10.5482 8.8501ZM10.2403 8.90547L10.6063 9.1589L10.6062 9.15903L10.2403 8.90547ZM10.2067 9.08615L9.77485 9.19411L9.77469 9.19347L10.2067 9.08615ZM10.3079 9.22223L10.1088 9.62037L10.0935 9.61275L10.0789 9.604L10.3079 9.22223ZM10.3083 9.22254L10.5074 8.8244L10.5226 8.83204L10.5373 8.84081L10.3083 9.22254ZM11.7626 10.095L11.9916 9.71329L11.9918 9.71339L11.7626 10.095ZM11.8056 10.2674L12.1874 10.4963L12.1871 10.4968L11.8056 10.2674ZM11.6333 10.3104L11.8623 9.92865L11.8624 9.92872L11.6333 10.3104ZM9.84781 9.2393L10.0767 8.85748L10.0768 8.85757L9.84781 9.2393ZM9.68026 9.21437L9.78878 9.64609L9.78795 9.6463L9.68026 9.21437ZM9.54411 9.31544L9.92614 9.54395L9.92556 9.54491L9.54411 9.31544ZM9.51894 9.48298L9.08707 9.59095L9.08679 9.58983L9.51894 9.48298ZM9.62001 9.61914L9.39105 10.0009L9.39081 10.0008L9.62001 9.61914ZM9.96745 9.82751L10.1964 9.44575L10.1965 9.44579L9.96745 9.82751ZM11.4054 10.6902L11.6344 10.3085L11.6346 10.3086L11.4054 10.6902ZM11.4484 10.8626L11.8302 11.0915L11.8299 11.092L11.4484 10.8626ZM11.2761 10.9056L11.0473 11.2875L11.0471 11.2873L11.2761 10.9056ZM9.82146 10.0329L9.59244 10.4146L9.59201 10.4144L9.82146 10.0329ZM9.51768 10.1089L9.8993 10.3381L9.89929 10.3381L9.51768 10.1089ZM9.49251 10.2765L9.06064 10.3845L9.06037 10.3833L9.49251 10.2765ZM9.59366 10.4127L9.36466 10.7944L9.36429 10.7942L9.59366 10.4127ZM9.9503 10.6266L10.1793 10.2449L10.1793 10.2449L9.9503 10.6266ZM11.0483 11.2854L11.2773 10.9036L11.2775 10.9037L11.0483 11.2854ZM11.0913 11.4577L11.4731 11.6867L11.4728 11.6871L11.0913 11.4577ZM10.919 11.5007L11.148 11.119L11.1485 11.1193L10.919 11.5007ZM9.82099 10.842L10.0498 10.4601L10.05 10.4602L9.82099 10.842ZM9.65337 10.817L9.5454 10.3852L9.54541 10.3852L9.65337 10.817ZM9.51721 10.918L9.13534 10.6892L9.13549 10.6889L9.51721 10.918ZM9.49204 11.0856L9.06017 11.1935L9.05993 11.1926L9.49204 11.0856ZM9.59319 11.2217L9.36419 11.6035L9.36382 11.6032L9.59319 11.2217ZM11.8191 12.557L12.0481 12.1753L12.0481 12.1753L11.8191 12.557ZM12.9916 12.7682L13.0806 13.2044L13.0806 13.2044L12.9916 12.7682ZM13.9001 12.1398L13.5183 11.9108L13.5184 11.9107L13.9001 12.1398ZM13.7789 10.5433L13.7348 10.1003L13.971 10.0768L14.1222 10.2599L13.7789 10.5433ZM14.4974 12.4978C14.1983 12.9966 13.708 13.3325 13.1311 13.4503L12.9529 12.578C13.2971 12.5077 13.5693 12.3144 13.7338 12.04L14.4974 12.4978ZM13.1309 13.4504C12.5608 13.5666 11.9679 13.458 11.4611 13.1541L11.9189 12.3905C12.2431 12.5849 12.6103 12.6479 12.9531 12.578L13.1309 13.4504ZM11.461 13.1541L9.23513 11.8188L9.69313 11.0553L11.919 12.3906L11.461 13.1541ZM9.23514 11.8188C9.0258 11.6932 8.87609 11.4917 8.81669 11.2544L9.68036 11.0382C9.68157 11.043 9.68325 11.046 9.68474 11.048C9.68624 11.0501 9.68869 11.0526 9.69312 11.0553L9.23514 11.8188ZM8.81655 11.2538C8.75758 11.0168 8.79488 10.7689 8.92022 10.5598L9.68381 11.0176C9.68114 11.0221 9.68016 11.0255 9.67978 11.0281C9.67939 11.0307 9.67934 11.0341 9.68051 11.0388L8.81655 11.2538ZM8.9201 10.56C9.00264 10.4222 9.11543 10.3188 9.23653 10.2464L9.69377 11.0103C9.68836 11.0135 9.68547 11.0161 9.68431 11.0172C9.68327 11.0182 9.68343 11.0183 9.68393 11.0174L8.9201 10.56ZM9.22922 11.0058L9.22859 11.0054L9.70046 10.2504L9.70109 10.2508L9.22922 11.0058ZM9.23553 11.0097C9.02629 10.8842 8.87637 10.6826 8.81715 10.445L9.68102 10.2297C9.68215 10.2342 9.68372 10.237 9.68518 10.239C9.68664 10.241 9.68907 10.2435 9.69352 10.2462L9.23553 11.0097ZM8.81728 10.4456C8.75776 10.2081 8.7952 9.95977 8.92061 9.75059L9.68421 10.2084C9.68149 10.2129 9.68053 10.2164 9.68016 10.2189C9.6798 10.2213 9.67974 10.2246 9.68088 10.2291L8.81728 10.4456ZM8.92089 9.75013C9.00307 9.61341 9.11536 9.50746 9.2408 9.43343L9.69329 10.2002C9.69039 10.2019 9.68843 10.2035 9.68714 10.2048C9.68591 10.206 9.6849 10.2072 9.68394 10.2088L8.92089 9.75013ZM9.21475 10.1836C9.03494 10.0599 8.89937 9.87504 8.84357 9.65182L9.7073 9.4359C9.70783 9.438 9.70853 9.43949 9.70968 9.44112C9.71093 9.44289 9.71372 9.44619 9.71934 9.45005L9.21475 10.1836ZM8.84362 9.65202C8.78414 9.41457 8.8215 9.16623 8.94709 8.95701L9.71043 9.41523C9.70779 9.41963 9.70687 9.42298 9.70651 9.42537C9.70615 9.42774 9.70608 9.43104 9.70725 9.4357L8.84362 9.65202ZM8.9469 8.95733C9.07254 8.74763 9.27437 8.59805 9.51139 8.53881L9.72728 9.40254C9.72253 9.40373 9.71957 9.40539 9.71759 9.40686C9.71562 9.40832 9.71316 9.41068 9.71063 9.4149L8.9469 8.95733ZM9.51095 8.53892C9.58469 8.5204 9.65987 8.5112 9.73473 8.5112V9.40151C9.7328 9.40151 9.73043 9.40175 9.72772 9.40243L9.51095 8.53892ZM9.73519 8.5112C9.88641 8.51136 10.0306 8.54985 10.1583 8.61667L9.74562 9.40554C9.74138 9.40333 9.73836 9.40235 9.73668 9.40192C9.73505 9.40151 9.73431 9.40151 9.73426 9.40151L9.73519 8.5112ZM9.50732 8.99005C9.51499 8.82815 9.5638 8.65901 9.66798 8.50878L10.3996 9.01614C10.4009 9.01427 10.3973 9.01802 10.3966 9.03217L9.50732 8.99005ZM9.66792 8.50887C9.94988 8.10207 10.4965 8.00702 10.9065 8.253L10.4484 9.01643C10.4354 9.00865 10.4227 9.0074 10.4127 9.00938C10.403 9.01132 10.4003 9.01509 10.3996 9.01605L9.66792 8.50887ZM10.9064 8.25297L12.7292 9.34633L12.2712 10.1098L10.4485 9.01646L10.9064 8.25297ZM12.111 9.94415L11.8761 9.52096L12.6544 9.0888L12.8894 9.51199L12.111 9.94415ZM11.8765 9.52178C11.7084 9.22041 11.7151 8.85106 11.8922 8.55569L12.6557 9.01358C12.6418 9.03693 12.6418 9.06622 12.654 9.08799L11.8765 9.52178ZM11.8923 8.55549C11.9791 8.41089 12.1025 8.2919 12.2489 8.20979L12.6844 8.98632C12.6717 8.99341 12.6619 9.00326 12.6556 9.01378L11.8923 8.55549ZM12.251 8.20859C12.3842 8.13486 12.5295 8.09957 12.6726 8.09957V8.98988C12.6761 8.98988 12.6797 8.98889 12.6822 8.98752L12.251 8.20859ZM12.6728 8.09957C12.9771 8.09973 13.2758 8.26022 13.4353 8.54846L12.6564 8.97961C12.6581 8.9828 12.6613 8.98593 12.6645 8.98776C12.667 8.98921 12.6695 8.98988 12.6724 8.98988L12.6728 8.09957ZM13.4351 8.54802C13.7057 9.03558 14.2151 9.95296 14.2505 10.0162L13.4735 10.4509C13.4372 10.3859 12.9266 9.46646 12.6566 8.98005L13.4351 8.54802ZM14.2287 9.98123C14.235 9.99037 14.257 10.0219 14.2766 10.0497L13.5483 10.5618C13.5283 10.5334 13.5042 10.4989 13.4952 10.4858L14.2287 9.98123ZM14.2762 10.0492C14.2854 10.0623 14.2975 10.0777 14.3152 10.0991L13.6298 10.6674C13.6056 10.6381 13.577 10.6025 13.5486 10.5622L14.2762 10.0492ZM14.3159 10.0999C14.8905 10.7965 14.9617 11.7241 14.4973 12.498L13.7339 12.0399C14.0034 11.5907 13.9648 11.0734 13.6291 10.6665L14.3159 10.0999ZM13.972 11.8476L13.972 11.8476L14.2592 12.6902L14.2592 12.6903L13.972 11.8476ZM13.4355 10.8268C13.4074 10.7927 13.3744 10.7516 13.3424 10.7058L14.0713 10.1947C14.0839 10.2126 14.1 10.2333 14.1219 10.2598L13.4355 10.8268ZM13.343 10.7067C13.3149 10.6669 13.2848 10.6247 13.2648 10.5916C13.2514 10.5695 13.2335 10.5371 13.2184 10.4959C13.2037 10.4558 13.1972 10.4215 13.1957 10.4144L14.0683 10.2377C14.0694 10.2432 14.065 10.2187 14.0542 10.1891C14.043 10.1586 14.0307 10.1376 14.0269 10.1313C14.0251 10.1283 14.0244 10.1273 14.0258 10.1295C14.0271 10.1315 14.0295 10.135 14.0335 10.1408C14.0418 10.1528 14.0532 10.169 14.0707 10.1938L13.343 10.7067ZM13.2511 10.5563C13.166 10.4156 12.9658 10.055 12.4368 9.10193L13.2152 8.66985C13.7517 9.63637 13.9392 9.97361 14.013 10.0958L13.2511 10.5563ZM12.4367 9.10179C12.5088 9.23176 12.6729 9.2796 12.8038 9.20724L12.3733 8.42798C12.6733 8.26218 13.0498 8.37153 13.2153 8.66998L12.4367 9.10179ZM12.8059 9.20609C12.8321 9.19145 12.8553 9.16893 12.8709 9.14296L12.1073 8.68514C12.1717 8.57783 12.2618 8.49034 12.3712 8.42913L12.8059 9.20609ZM12.8709 9.14302C12.9028 9.08988 12.9049 9.02267 12.8732 8.96582L12.0958 9.39984C11.9708 9.1759 11.9767 8.90292 12.1074 8.68507L12.8709 9.14302ZM12.8737 8.96681L13.3361 9.79988L12.5576 10.2319L12.0953 9.39885L12.8737 8.96681ZM13.336 9.79977C13.4613 10.0254 13.4197 10.3073 13.2339 10.4871L12.6149 9.84711C12.5108 9.94784 12.4876 10.1058 12.5577 10.232L13.336 9.79977ZM13.2345 10.4864C13.0473 10.6683 12.7641 10.6974 12.5449 10.567L13 9.80188C12.8787 9.72968 12.7201 9.74499 12.6143 9.84772L13.2345 10.4864ZM12.5434 10.5662L10.3192 9.23183L10.7772 8.46836L13.0015 9.80273L12.5434 10.5662ZM10.3193 9.23191C10.3627 9.25794 10.4118 9.26553 10.4578 9.25728C10.5038 9.24903 10.5632 9.22114 10.6063 9.1589L9.87434 8.65204C10.0886 8.34261 10.496 8.29982 10.777 8.46828L10.3193 9.23191ZM10.6062 9.15903C10.6409 9.10888 10.6544 9.04181 10.6387 8.97883L9.77469 9.19347C9.7279 9.00511 9.7651 8.80966 9.87442 8.65192L10.6062 9.15903ZM10.6386 8.97819C10.624 8.91988 10.5863 8.87015 10.5368 8.84046L10.0789 9.604C9.92764 9.51327 9.81806 9.36695 9.77485 9.19411L10.6386 8.97819ZM10.507 8.82409C10.5472 8.8442 10.5768 8.86663 10.5955 8.88247C10.6047 8.89026 10.6119 8.89694 10.6162 8.90107C10.6183 8.90317 10.6201 8.90489 10.6212 8.90594C10.6217 8.90648 10.6221 8.90691 10.6224 8.90718C10.6225 8.90731 10.6227 8.90742 10.6227 8.90749C10.6228 8.90752 10.6228 8.90755 10.6228 8.90757C10.6228 8.90758 10.6228 8.90758 10.6228 8.90759C10.6228 8.90759 10.6228 8.90759 10.6228 8.90759C10.6228 8.9076 10.6228 8.9076 10.6228 8.9076C10.6234 8.90816 10.6201 8.90488 10.6162 8.90116C10.612 8.89706 10.6049 8.89041 10.5957 8.88264C10.577 8.86685 10.5475 8.84448 10.5074 8.8244L10.1091 9.62068C10.0689 9.60057 10.0393 9.57814 10.0206 9.5623C10.0114 9.55451 10.0043 9.54783 9.99998 9.5437C9.99779 9.5416 9.99604 9.53988 9.99498 9.53883C9.99444 9.5383 9.994 9.53786 9.99374 9.5376C9.9936 9.53746 9.99349 9.53735 9.99342 9.53728C9.99339 9.53725 9.99336 9.53722 9.99334 9.5372C9.99333 9.53719 9.99333 9.53719 9.99332 9.53718C9.99332 9.53718 9.99332 9.53718 9.99332 9.53718C9.99332 9.53718 9.99331 9.53718 9.99331 9.53717C9.99275 9.53661 9.996 9.53989 9.99989 9.54362C10.0042 9.54771 10.0113 9.55436 10.0204 9.56213C10.0391 9.57792 10.0686 9.60029 10.1088 9.62037L10.507 8.82409ZM10.5373 8.84081L11.9916 9.71329L11.5336 10.4767L10.0793 9.60427L10.5373 8.84081ZM11.9918 9.71339C12.262 9.87567 12.3494 10.2261 12.1874 10.4963L11.4239 10.0384C11.3332 10.1895 11.3821 10.3858 11.5334 10.4766L11.9918 9.71339ZM12.1871 10.4968C12.0252 10.766 11.6752 10.8548 11.4042 10.6921L11.8624 9.92872C11.7106 9.83759 11.5146 9.88751 11.4241 10.038L12.1871 10.4968ZM11.4043 10.6921L9.61881 9.62104L10.0768 8.85757L11.8623 9.92865L11.4043 10.6921ZM9.61895 9.62112C9.66896 9.6511 9.73062 9.66071 9.78878 9.64609L9.57175 8.78264C9.74444 8.73923 9.92535 8.76678 10.0767 8.85748L9.61895 9.62112ZM9.78795 9.6463C9.84576 9.63189 9.89601 9.59432 9.92614 9.54395L9.16208 9.08693C9.25308 8.93479 9.39992 8.82548 9.57258 8.78243L9.78795 9.6463ZM9.92556 9.54491C9.95614 9.49409 9.96504 9.43261 9.95108 9.37614L9.08679 9.58983C9.04452 9.41883 9.07104 9.23827 9.16265 9.08598L9.92556 9.54491ZM9.9508 9.37502C9.9363 9.31703 9.89886 9.26734 9.84922 9.23753L9.39081 10.0008C9.23954 9.9099 9.1302 9.76347 9.08707 9.59095L9.9508 9.37502ZM9.84897 9.23738L10.1964 9.44575L9.73849 10.2093L9.39105 10.0009L9.84897 9.23738ZM10.1965 9.44579L11.6344 10.3085L11.1764 11.072L9.73843 10.2092L10.1965 9.44579ZM11.6346 10.3086C11.9048 10.4709 11.9922 10.8213 11.8302 11.0915L11.0667 10.6336C10.976 10.7847 11.0249 10.981 11.1762 11.0719L11.6346 10.3086ZM11.8299 11.092C11.6678 11.3616 11.3178 11.4495 11.0473 11.2875L11.5048 10.5237C11.3536 10.4331 11.1576 10.4823 11.0669 10.6332L11.8299 11.092ZM11.0471 11.2873L9.59244 10.4146L10.0505 9.65117L11.5051 10.5239L11.0471 11.2873ZM9.59201 10.4144C9.6989 10.4787 9.83602 10.4434 9.8993 10.3381L9.13606 9.87968C9.32519 9.56478 9.73479 9.46128 10.0509 9.65143L9.59201 10.4144ZM9.89929 10.3381C9.92965 10.2875 9.93864 10.2262 9.92465 10.1696L9.06037 10.3833C9.01807 10.2123 9.04468 10.0318 9.13607 9.87967L9.89929 10.3381ZM9.92437 10.1685C9.90978 10.1102 9.87213 10.0607 9.82304 10.0311L9.36429 10.7942C9.21342 10.7035 9.10387 10.5574 9.06065 10.3845L9.92437 10.1685ZM9.82267 10.0309L10.1793 10.2449L9.7213 11.0083L9.36466 10.7944L9.82267 10.0309ZM10.1793 10.2449L11.2773 10.9036L10.8193 11.6671L9.72128 11.0083L10.1793 10.2449ZM11.2775 10.9037C11.5477 11.066 11.6351 11.4165 11.4731 11.6867L10.7096 11.2287C10.6189 11.3799 10.6678 11.5761 10.8191 11.667L11.2775 10.9037ZM11.4728 11.6871C11.3112 11.9559 10.9611 12.0456 10.6895 11.8822L11.1485 11.1193C10.9961 11.0276 10.8 11.0783 10.7098 11.2283L11.4728 11.6871ZM10.6899 11.8825L9.59196 11.2237L10.05 10.4602L11.148 11.119L10.6899 11.8825ZM9.59213 11.2238C9.64227 11.2538 9.70397 11.2632 9.76133 11.2489L9.54541 10.3852C9.71792 10.342 9.8984 10.3694 10.0498 10.4601L9.59213 11.2238ZM9.76133 11.2489C9.81861 11.2346 9.86863 11.1975 9.89893 11.147L9.13549 10.6889C9.22667 10.537 9.37359 10.4281 9.5454 10.3852L9.76133 11.2489ZM9.89908 11.1467C9.929 11.0968 9.93829 11.0357 9.92415 10.9786L9.05993 11.1926C9.01747 11.0211 9.04454 10.8407 9.13534 10.6892L9.89908 11.1467ZM9.9239 10.9776C9.90931 10.9192 9.87166 10.8697 9.82257 10.8402L9.36382 11.6032C9.21295 11.5125 9.1034 11.3664 9.06017 11.1935L9.9239 10.9776ZM9.82219 10.84L12.0481 12.1753L11.5901 12.9388L9.36419 11.6035L9.82219 10.84ZM12.0481 12.1753C12.3186 12.3376 12.6223 12.3892 12.9026 12.332L13.0806 13.2044C12.5714 13.3083 12.042 13.2099 11.5901 12.9387L12.0481 12.1753ZM12.9025 12.3321C13.1778 12.2758 13.3909 12.1233 13.5183 11.9108L14.2818 12.3688C14.0188 12.8073 13.5865 13.1011 13.0806 13.2044L12.9025 12.3321ZM13.5184 11.9107C13.7364 11.5475 13.7073 11.1559 13.4356 10.8267L14.1222 10.2599C14.633 10.8788 14.6947 11.6809 14.2817 12.3689L13.5184 11.9107ZM13.823 10.9863L13.8228 10.9863L13.7346 10.1003L13.7348 10.1003L13.823 10.9863Z" fill="#4CAF4F" mask="url(#path-4-inside-2_212_1413)"/>
</svg>
