<svg width="11" height="12" viewBox="0 0 11 12" fill="none" xmlns="http://www.w3.org/2000/svg">
<path opacity="0.1" fill-rule="evenodd" clip-rule="evenodd" d="M0.113525 5.72724C0.113525 2.77701 2.50516 0.385376 5.45539 0.385376C8.40562 0.385376 10.7973 2.77701 10.7973 5.72724C10.7973 8.67747 8.40562 11.0691 5.45539 11.0691C2.50516 11.0691 0.113525 8.67747 0.113525 5.72724Z" fill="white"/>
<path fill-rule="evenodd" clip-rule="evenodd" d="M8.30443 5.72328C8.30443 5.91595 8.28482 6.10836 8.24629 6.29591C8.20872 6.479 8.15308 6.65876 8.08018 6.83059C8.00896 6.99939 7.92062 7.16205 7.81739 7.31375C7.7157 7.46448 7.59856 7.6059 7.46987 7.73481C7.34091 7.86317 7.19901 7.97999 7.04835 8.08211C6.89615 8.18462 6.73326 8.27283 6.56436 8.34438C6.39227 8.4169 6.2121 8.47246 6.02917 8.50996C5.84137 8.54859 5.64826 8.56831 5.45531 8.56831C5.26222 8.56831 5.06912 8.54859 4.88159 8.50996C4.69838 8.47246 4.51822 8.4169 4.34626 8.34438C4.17738 8.27283 4.01432 8.18462 3.86213 8.08211C3.71147 7.98 3.56957 7.86317 3.44088 7.73481C3.31206 7.6059 3.19492 7.46448 3.09309 7.31375C2.99042 7.16205 2.90193 6.99938 2.83043 6.83059C2.75752 6.65876 2.70174 6.47899 2.66404 6.29591C2.62593 6.10836 2.60645 5.91595 2.60645 5.72328C2.60645 5.53046 2.62592 5.33765 2.66405 5.15051C2.70176 4.96741 2.75753 4.78738 2.83044 4.61582C2.90194 4.4469 2.99043 4.28409 3.0931 4.13239C3.19493 3.98153 3.31207 3.84038 3.44089 3.71132C3.56958 3.58296 3.71148 3.46642 3.86214 3.36445C4.01434 3.26151 4.17739 3.17331 4.34627 3.10162C4.51823 3.02895 4.69838 2.97325 4.8816 2.93603C5.06913 2.89769 5.26223 2.87823 5.45532 2.87823C5.64827 2.87823 5.84137 2.89769 6.02918 2.93603C6.21211 2.97326 6.39227 3.02896 6.56437 3.10162C6.73326 3.17329 6.89616 3.26151 7.04836 3.36445C7.19902 3.46642 7.34093 3.58296 7.46989 3.71132C7.59857 3.84038 7.71572 3.98153 7.8174 4.13239C7.92062 4.28409 8.00896 4.44691 8.08018 4.61582C8.15308 4.78738 8.20872 4.96741 8.24629 5.15051C8.28482 5.33765 8.30443 5.53046 8.30443 5.72328ZM4.4172 3.52573C3.73871 3.84566 3.23232 4.46996 3.07442 5.22234C3.13856 5.22289 4.15246 5.23568 5.32063 4.92574C4.89952 4.17864 4.44962 3.56894 4.4172 3.52573ZM5.52221 5.29986C4.26945 5.67437 3.06733 5.64742 3.02421 5.64576C3.0235 5.67188 3.02225 5.69715 3.02225 5.72328C3.02225 6.34742 3.25806 6.91643 3.64564 7.34667C3.64481 7.34541 4.31064 6.16587 5.62363 5.74189C5.65534 5.73134 5.68763 5.72188 5.71962 5.71272C5.65856 5.57464 5.5919 5.43628 5.52221 5.29986ZM7.06212 3.89984C6.63377 3.52267 6.07132 3.29389 5.4553 3.29389C5.25761 3.29389 5.06577 3.31778 4.882 3.36196C4.91844 3.41086 5.37545 4.01626 5.79155 4.77918C6.7096 4.43551 7.05613 3.90873 7.06212 3.89984ZM5.88547 6.1153C5.88005 6.1171 5.87463 6.11864 5.86933 6.12058C4.43379 6.62031 3.965 7.6274 3.95993 7.6384C4.37298 7.95915 4.89105 8.15267 5.45532 8.15267C5.79225 8.15267 6.1132 8.08417 6.40521 7.96013C6.36918 7.74786 6.22783 7.00382 5.88547 6.1153ZM6.81491 7.73814C7.36122 7.37001 7.74921 6.78545 7.85745 6.10834C7.80737 6.09223 7.12666 5.87704 6.34134 6.00277C6.66047 6.87852 6.79014 7.59173 6.81491 7.73814ZM5.97882 5.14121C6.03529 5.25707 6.08998 5.37499 6.14047 5.4935C6.15842 5.53602 6.17595 5.5777 6.19306 5.61936C7.02888 5.51434 7.85232 5.69104 7.88752 5.69826C7.88196 5.12231 7.67564 4.59373 7.33426 4.1799C7.32966 4.18641 6.93943 4.74945 5.97882 5.14121Z" fill="white"/>
</svg>
