<svg width="11" height="12" viewBox="0 0 11 12" fill="none" xmlns="http://www.w3.org/2000/svg">
<path opacity="0.1" fill-rule="evenodd" clip-rule="evenodd" d="M0.164795 5.72724C0.164795 2.77701 2.55643 0.385376 5.50666 0.385376C8.45689 0.385376 10.8485 2.77701 10.8485 5.72724C10.8485 8.67747 8.45689 11.0691 5.50666 11.0691C2.55643 11.0691 0.164795 8.67747 0.164795 5.72724Z" fill="white"/>
<path fill-rule="evenodd" clip-rule="evenodd" d="M7.73284 3.89082C7.97802 3.9581 8.1711 4.15633 8.23663 4.40807C8.3557 4.86431 8.3557 5.81627 8.3557 5.81627C8.3557 5.81627 8.3557 6.76819 8.23663 7.22447C8.1711 7.47621 7.97802 7.67444 7.73284 7.74175C7.28853 7.86398 5.50671 7.86398 5.50671 7.86398C5.50671 7.86398 3.72489 7.86398 3.28054 7.74175C3.03537 7.67444 2.84228 7.47621 2.77676 7.22447C2.65771 6.76819 2.65771 5.81627 2.65771 5.81627C2.65771 5.81627 2.65771 4.86431 2.77676 4.40807C2.84228 4.15633 3.03537 3.9581 3.28054 3.89082C3.72489 3.76855 5.50671 3.76855 5.50671 3.76855C5.50671 3.76855 7.28853 3.76855 7.73284 3.89082ZM4.97253 5.01497V6.79559L6.39703 5.90532L4.97253 5.01497Z" fill="white"/>
</svg>
