<svg width="11" height="12" viewBox="0 0 11 12" fill="none" xmlns="http://www.w3.org/2000/svg">
<path opacity="0.1" fill-rule="evenodd" clip-rule="evenodd" d="M0.0878906 5.72724C0.0878906 2.77701 2.47952 0.385376 5.42976 0.385376C8.37999 0.385376 10.7716 2.77701 10.7716 5.72724C10.7716 8.67747 8.37999 11.0691 5.42976 11.0691C2.47952 11.0691 0.0878906 8.67747 0.0878906 5.72724Z" fill="white"/>
<path fill-rule="evenodd" clip-rule="evenodd" d="M5.43007 2.87823C4.65632 2.87823 4.55922 2.88162 4.25532 2.89545C3.95202 2.90934 3.74499 2.95735 3.56384 3.02781C3.37646 3.10058 3.21751 3.19792 3.05915 3.35634C2.90067 3.51469 2.80333 3.67365 2.73032 3.86097C2.65969 4.04218 2.61162 4.24927 2.59796 4.55245C2.58437 4.85635 2.58081 4.95351 2.58081 5.72726C2.58081 6.50101 2.58425 6.59781 2.59802 6.90171C2.61197 7.20501 2.65999 7.41204 2.73038 7.59319C2.80321 7.78057 2.90055 7.93953 3.05897 8.09788C3.21727 8.25636 3.37622 8.35394 3.56349 8.42671C3.74476 8.49716 3.95184 8.54518 4.25509 8.55907C4.55898 8.5729 4.65603 8.57628 5.42972 8.57628C6.20352 8.57628 6.30033 8.5729 6.60423 8.55907C6.90753 8.54518 7.1148 8.49716 7.29606 8.42671C7.48339 8.35394 7.6421 8.25636 7.8004 8.09788C7.95888 7.93953 8.05622 7.78057 8.12923 7.59325C8.19926 7.41204 8.24734 7.20495 8.26159 6.90177C8.27524 6.59787 8.2788 6.50101 8.2788 5.72726C8.2788 4.95351 8.27524 4.85641 8.26159 4.55251C8.24734 4.24921 8.19926 4.04218 8.12923 3.86103C8.05622 3.67365 7.95888 3.51469 7.8004 3.35634C7.64192 3.19786 7.48345 3.10052 7.29589 3.02781C7.11426 2.95735 6.90711 2.90934 6.60381 2.89545C6.29991 2.88162 6.20317 2.87823 5.42918 2.87823H5.43007ZM5.17448 3.39164C5.25033 3.39153 5.33497 3.39164 5.43006 3.39164C6.19075 3.39164 6.28091 3.39438 6.5813 3.40803C6.85908 3.42073 7.00984 3.46714 7.11027 3.50614C7.24323 3.55778 7.33802 3.61951 7.43767 3.71922C7.53739 3.81894 7.59912 3.91391 7.65087 4.04686C7.68987 4.14717 7.73634 4.29793 7.74899 4.57571C7.76264 4.87605 7.76561 4.96627 7.76561 5.7266C7.76561 6.48693 7.76264 6.57715 7.74899 6.87749C7.73629 7.15527 7.68987 7.30603 7.65087 7.40634C7.59924 7.53929 7.53739 7.63396 7.43767 7.73362C7.33796 7.83333 7.24329 7.89506 7.11027 7.9467C7.00996 7.98587 6.85908 8.03217 6.5813 8.04487C6.28097 8.05852 6.19075 8.06149 5.43006 8.06149C4.66931 8.06149 4.57915 8.05852 4.27882 8.04487C4.00104 8.03205 3.85028 7.98564 3.74979 7.94664C3.61683 7.895 3.52187 7.83327 3.42215 7.73356C3.32243 7.63384 3.26071 7.53911 3.20895 7.4061C3.16995 7.30579 3.12348 7.15503 3.11084 6.87725C3.09718 6.57691 3.09445 6.48669 3.09445 5.72589C3.09445 4.96508 3.09718 4.87533 3.11084 4.575C3.12354 4.29722 3.16995 4.14646 3.20895 4.04603C3.26059 3.91308 3.32243 3.81811 3.42215 3.71839C3.52187 3.61868 3.61683 3.55695 3.74979 3.50519C3.85022 3.46602 4.00104 3.41972 4.27882 3.40696C4.54164 3.39509 4.64349 3.39153 5.17448 3.39093V3.39164ZM6.95085 3.8647C6.7621 3.8647 6.60896 4.01766 6.60896 4.20647C6.60896 4.39521 6.7621 4.54835 6.95085 4.54835C7.13959 4.54835 7.29273 4.39521 7.29273 4.20647C7.29273 4.01772 7.13959 3.8647 6.95085 3.8647ZM5.43008 4.26416C4.62208 4.26416 3.96698 4.91926 3.96698 5.72725C3.96698 6.53525 4.62208 7.19005 5.43008 7.19005C6.23807 7.19005 6.89293 6.53525 6.89293 5.72725C6.89293 4.91926 6.23807 4.26416 5.43008 4.26416ZM5.43007 4.77758C5.95452 4.77758 6.37974 5.20273 6.37974 5.72725C6.37974 6.25171 5.95452 6.67693 5.43007 6.67693C4.90555 6.67693 4.48039 6.25171 4.48039 5.72725C4.48039 5.20273 4.90555 4.77758 5.43007 4.77758Z" fill="white"/>
</svg>
