<svg width="11" height="12" viewBox="0 0 11 12" fill="none" xmlns="http://www.w3.org/2000/svg">
<path opacity="0.1" fill-rule="evenodd" clip-rule="evenodd" d="M0.13916 5.72724C0.13916 2.77701 2.53079 0.385376 5.48102 0.385376C8.43126 0.385376 10.8229 2.77701 10.8229 5.72724C10.8229 8.67747 8.43126 11.0691 5.48102 11.0691C2.53079 11.0691 0.13916 8.67747 0.13916 5.72724Z" fill="white"/>
<path fill-rule="evenodd" clip-rule="evenodd" d="M5.321 4.72733L5.33221 4.91217L5.14539 4.88954C4.46534 4.80278 3.87123 4.50854 3.3668 4.01437L3.12019 3.76918L3.05667 3.95025C2.92215 4.35388 3.00809 4.78014 3.28833 5.06683C3.43779 5.22527 3.40417 5.2479 3.14635 5.1536C3.05667 5.12342 2.9782 5.10078 2.97073 5.1121C2.94457 5.13851 3.03425 5.48178 3.10524 5.61758C3.20239 5.8062 3.40043 5.99104 3.61715 6.10043L3.80024 6.18719L3.58352 6.19097C3.37427 6.19097 3.3668 6.19474 3.38922 6.27396C3.46395 6.51915 3.75914 6.77944 4.08795 6.89261L4.31961 6.97182L4.11784 7.09254C3.81892 7.26606 3.46769 7.36414 3.11645 7.37168C2.94831 7.37546 2.81006 7.39054 2.81006 7.40186C2.81006 7.43958 3.26591 7.65083 3.53121 7.73382C4.32709 7.97902 5.27243 7.87339 5.98237 7.45467C6.4868 7.15666 6.99123 6.56442 7.22663 5.99104C7.35367 5.68548 7.48071 5.12719 7.48071 4.85936C7.48071 4.68584 7.49192 4.6632 7.70117 4.45573C7.82447 4.33502 7.94031 4.20299 7.96273 4.16526C8.00009 4.09359 7.99635 4.09359 7.80579 4.15772C7.48819 4.27089 7.44335 4.2558 7.60028 4.08605C7.71611 3.96534 7.85437 3.74654 7.85437 3.68242C7.85437 3.6711 7.79832 3.68996 7.7348 3.72391C7.66754 3.76163 7.51808 3.81822 7.40598 3.85217L7.20421 3.9163L7.02112 3.79181C6.92024 3.72391 6.77825 3.64847 6.70352 3.62583C6.51295 3.57302 6.2215 3.58056 6.04962 3.64092C5.58256 3.81067 5.28737 4.24825 5.321 4.72733Z" fill="white"/>
</svg>
